<?xml version="1.0" standalone="no"?>
<!DOCTYPE svg PUBLIC "-//W3C//DTD SVG 20010904//EN"
 "http://www.w3.org/TR/2001/REC-SVG-20010904/DTD/svg10.dtd">
<svg version="1.0" xmlns="http://www.w3.org/2000/svg"
 width="257.000000pt" height="257.000000pt" viewBox="0 0 257.000000 257.000000"
 preserveAspectRatio="xMidYMid meet">
<metadata>
Created by potrace 1.14, written by Peter Selinger 2001-2017
</metadata>
<g transform="translate(0.000000,257.000000) scale(0.100000,-0.100000)"
fill="#000000" stroke="none">
<path d="M1340 2330 c0 -5 -6 -10 -14 -10 -21 0 -27 -29 -15 -75 6 -22 15 -67
20 -100 5 -33 11 -65 13 -71 3 -8 -5 -9 -27 -4 -90 22 -181 72 -298 163 -67
51 -83 59 -124 60 -61 3 -81 -20 -47 -56 12 -13 22 -31 22 -40 0 -21 24 -86
60 -159 l27 -56 -31 -6 c-43 -8 -382 -10 -393 -3 -15 10 -64 -16 -58 -30 2 -7
0 -13 -5 -13 -26 0 -5 -20 43 -40 87 -38 158 -59 228 -66 l66 -6 -23 -23 c-13
-13 -32 -29 -43 -37 -10 -8 -49 -41 -86 -73 -56 -50 -147 -116 -175 -127 -4
-2 -10 -13 -14 -25 -6 -18 -2 -24 18 -29 30 -7 223 45 296 80 27 13 50 23 50
22 0 -1 -22 -54 -50 -117 -27 -62 -50 -119 -50 -126 0 -6 13 -17 29 -24 23
-10 28 -17 21 -33 -13 -36 -3 -124 20 -171 12 -25 44 -64 71 -87 46 -39 48
-42 35 -67 -7 -14 -16 -38 -19 -52 -5 -21 -19 -31 -66 -48 -67 -26 -113 -69
-131 -124 -25 -80 17 -147 93 -147 32 0 35 -2 41 -40 5 -30 16 -47 51 -77 33
-27 45 -45 45 -64 0 -15 15 -46 35 -72 34 -45 66 -62 109 -59 11 0 33 -10 50
-24 29 -25 33 -26 120 -19 107 8 138 20 191 69 22 20 77 61 122 92 95 63 97
67 96 224 0 125 -19 230 -55 312 -17 37 -28 74 -25 81 4 10 29 16 80 19 91 6
172 42 217 96 29 35 31 42 28 106 l-3 69 45 22 c103 50 138 64 185 77 95 24
98 50 12 97 -80 44 -130 82 -120 92 17 16 141 76 182 88 97 28 94 75 -5 87
-32 3 -58 14 -74 29 -29 27 -98 58 -111 49 -5 -3 -38 9 -73 26 l-65 31 29 47
c16 26 43 72 61 102 17 30 36 58 41 61 4 3 10 15 12 26 3 16 -2 23 -19 27 -26
7 -49 -1 -140 -44 -81 -38 -246 -68 -279 -50 -34 18 -115 100 -133 134 -8 16
-24 38 -34 49 -10 12 -19 26 -19 31 0 6 -9 17 -20 24 -12 7 -20 8 -20 2z
m-196 -775 c-15 -98 -23 -154 -28 -200 -2 -16 -4 -34 -5 -39 0 -5 -11 4 -23
20 -53 69 -92 104 -102 94 -7 -7 -3 -20 12 -40 l23 -30 -21 -28 c-13 -17 -18
-35 -14 -45 8 -22 52 -33 75 -18 10 6 26 11 34 11 9 0 18 7 21 15 4 8 10 12
15 9 17 -10 55 23 69 58 36 94 114 250 125 250 5 0 49 -78 98 -173 49 -96 99
-191 113 -211 13 -21 24 -42 24 -48 0 -5 4 -10 8 -10 19 0 43 30 83 100 23 41
48 83 57 93 32 36 64 15 101 -68 24 -54 25 -70 11 -112 -15 -42 -97 -84 -144
-73 -18 4 -41 3 -50 -2 -10 -5 -24 -7 -32 -4 -8 3 -57 -15 -108 -39 -75 -36
-108 -46 -167 -51 -92 -8 -242 10 -313 37 -59 22 -121 59 -118 72 2 4 -6 17
-17 28 -38 41 -47 151 -16 189 7 8 15 27 19 43 3 15 12 27 20 27 7 0 25 14 40
32 59 72 210 218 217 211 4 -4 1 -48 -7 -98z m-167 -710 c52 -22 67 -36 51
-46 -7 -5 -23 -9 -34 -9 -24 0 -73 -35 -63 -45 4 -3 24 1 44 9 41 18 121 21
130 6 3 -5 11 -7 19 -4 34 13 106 -40 106 -78 0 -33 -30 -81 -80 -128 -44 -42
-52 -45 -109 -48 -69 -4 -142 22 -160 56 -17 32 -13 81 10 118 17 28 18 34 6
34 -15 0 -61 -48 -69 -70 -6 -18 -58 10 -72 39 -16 33 -9 100 12 125 44 49
143 68 209 41z"/>
<path d="M1325 1320 c-38 -11 -73 -20 -77 -20 -15 0 -8 -20 7 -20 9 0 15 -9
15 -24 0 -31 25 -57 48 -49 32 11 42 25 42 57 0 26 5 34 31 43 17 7 28 17 24
22 -8 14 -5 14 -90 -9z"/>
</g>
</svg>
