<?xml version="1.0" standalone="no"?>
<!DOCTYPE svg PUBLIC "-//W3C//DTD SVG 20010904//EN"
 "http://www.w3.org/TR/2001/REC-SVG-20010904/DTD/svg10.dtd">
<svg version="1.0" xmlns="http://www.w3.org/2000/svg"
 width="200.000000pt" height="200.000000pt" viewBox="0 0 200.000000 200.000000"
 preserveAspectRatio="xMidYMid meet">
<metadata>
Created by potrace 1.14, written by Peter Selinger 2001-2017
</metadata>
<g transform="translate(0.000000,200.000000) scale(0.100000,-0.100000)"
fill="#000000" stroke="none">
<path d="M1030 1693 c-23 -9 -31 -26 -24 -53 3 -14 12 -58 19 -98 l12 -74 -28
6 c-60 12 -125 48 -270 153 -54 38 -98 50 -128 34 -24 -14 -28 -43 -6 -61 8
-7 15 -21 15 -31 0 -10 4 -20 9 -23 4 -3 11 -19 14 -36 4 -16 16 -51 28 -76
13 -29 17 -49 11 -53 -6 -3 -94 -5 -197 -4 -174 1 -188 0 -206 -18 -28 -28
-21 -40 37 -68 53 -26 85 -36 179 -54 l60 -12 -24 -20 c-13 -11 -38 -33 -56
-50 -67 -60 -150 -125 -162 -125 -14 0 -53 -39 -53 -53 0 -7 8 -17 18 -23 20
-13 162 19 246 55 27 12 50 20 53 18 2 -2 -15 -45 -37 -94 -22 -50 -40 -96
-40 -102 0 -6 11 -16 23 -22 21 -10 23 -16 19 -59 -7 -72 22 -143 77 -192 l45
-39 -22 -44 c-36 -75 -71 -318 -52 -364 40 -98 465 -148 678 -80 44 14 53 42
56 159 2 114 -14 205 -48 283 -14 32 -26 61 -26 66 0 5 30 11 68 13 87 7 155
39 194 92 27 37 29 46 23 96 l-6 55 72 33 c40 18 97 40 128 49 97 28 104 56
24 97 -26 13 -63 36 -81 49 l-33 25 78 38 c43 21 89 42 103 48 78 34 53 80
-47 85 -12 0 -33 12 -46 25 -13 13 -39 27 -58 31 -60 12 -127 36 -138 49 -11
13 2 37 80 154 35 52 37 75 5 90 -20 9 -34 6 -88 -22 -34 -18 -79 -36 -98 -40
-19 -4 -63 -14 -97 -23 l-62 -16 -45 34 c-24 19 -68 69 -97 111 -42 63 -70 93
-82 87 -1 0 -9 -3 -17 -6z m-175 -759 c-9 -60 -18 -110 -20 -113 -3 -2 -23 17
-46 43 -45 50 -57 53 -71 16 -5 -13 -6 -21 -2 -17 4 4 16 0 26 -10 17 -15 17
-18 2 -34 -9 -10 -14 -30 -12 -46 5 -45 55 -44 158 6 8 4 24 27 35 51 47 104
101 204 109 203 6 -1 53 -85 105 -187 80 -157 99 -186 116 -184 19 3 44 36
108 144 27 45 28 46 48 28 11 -10 29 -38 40 -63 40 -90 -10 -153 -118 -151
-78 1 -81 1 -162 -41 -66 -34 -88 -40 -156 -43 -111 -5 -219 10 -288 41 -49
22 -63 35 -88 77 -32 57 -37 106 -14 150 8 15 15 32 15 36 0 5 51 61 113 125
86 89 113 111 115 96 2 -10 -4 -68 -13 -127z"/>
<path d="M1018 802 c-66 -20 -79 -30 -55 -43 9 -6 15 -14 12 -19 -12 -19 15
-50 43 -50 36 0 52 17 52 52 0 21 6 31 26 38 29 11 28 34 -2 37 -10 1 -45 -6
-76 -15z"/>
</g>
</svg>
